<svg xmlns="http://www.w3.org/2000/svg" xmlns:xlink="http://www.w3.org/1999/xlink">
  <symbol id="icon-eye-f" viewBox="-2 -6 24 24">
    <path d="M10 12c-5.042.007-10-2.686-10-6S4.984-.017 10 0c5.016.017 10 2.686 10 6s-4.958 5.993-10 6zm0-2a4 4 0 1 0 0-8 4 4 0 0 0 0 8zm0-2a2 2 0 1 1 0-4 2 2 0 0 1 0 4z" />
  </symbol>
  <symbol id="icon-eye-close-f" viewBox="-2 -2 24 24">
    <path d="M9.329 11.885L2.12 19.092a1 1 0 1 1-1.414-1.414l7.324-7.324a2 2 0 0 1 2.322-2.322L17.679.706a1 1 0 0 1 1.414 1.414L11.885 9.33a2 2 0 0 1-2.556 2.556zm7.54-6.127C18.75 6.842 20 8.34 20 10c0 3.314-4.958 5.993-10 6a14.734 14.734 0 0 1-3.053-.32l1.861-1.86a4 4 0 0 0 5.011-5.011l3.05-3.051zm-4.16-1.496l-1.834 1.834a4 4 0 0 0-4.779 4.779L2.869 14.1C1.134 13.028 0 11.585 0 10c0-3.314 4.984-6.017 10-6 .914.003 1.827.094 2.709.262z" />
  </symbol>
  <symbol id="icon-refresh-o" viewBox="0 0 24 24">
    <path d="M5.556 8.14C6.865 5.933 9.262 4.454 12 4.454c3.285 0 6.08 2.13 7.093 5.09M18.42 15.9A7.488 7.488 0 0112 19.546c-3.28 0-6.071-2.123-7.088-5.076" /><path d="M20.432 6.5l-1.189 3.28-3.299-1.136M3.85 17.608l.711-3.415 3.427.656" />
  </symbol>
  <symbol id="icon-door-o" viewBox="0 0 24 24">
    <path d="M17 4a1 1 0 00-1-1H8a1 1 0 00-1 1v16a1 1 0 001 1h8a1 1 0 001-1V4zM10 12h1" />
  </symbol>
</svg>